<svg xmlns="http://www.w3.org/2000/svg" viewBox="0 0 64 64">
  <defs>
    <radialGradient id="ocean" cx="30%" cy="30%" r="70%">
      <stop offset="0%" stop-color="#38bdf8" />
      <stop offset="100%" stop-color="#0f766e" />
    </radialGradient>
    <linearGradient id="leaf" x1="0" y1="0" x2="1" y2="1">
      <stop offset="0%" stop-color="#22c55e" />
      <stop offset="100%" stop-color="#15803d" />
    </linearGradient>
  </defs>
  <circle cx="32" cy="32" r="30" fill="#0b3b2e" />
  <circle cx="32" cy="32" r="24" fill="url(#ocean)" />
  <path d="M17 29c4-7 11-10 17-8-2 6-8 11-17 12Z" fill="#bbf7d0" opacity="0.95" />
  <path d="M34 20c7 0 12 4 14 10-7 2-14-1-18-8 1-1 2-2 4-2Z" fill="#86efac" opacity="0.95" />
  <path d="M20 35c7-1 13 2 17 8-7 3-15 1-21-5 1-1 2-2 4-3Z" fill="#4ade80" opacity="0.95" />
  <path d="M39 36c6-1 11 1 14 5-4 5-10 6-16 3-1-3 0-6 2-8Z" fill="#22c55e" />
  <path d="M40 7c8 1 15 8 17 16-10 1-19-4-24-13 2-2 4-3 7-3Z" fill="url(#leaf)" />
  <path d="M41 11c-1 5-4 9-8 12" fill="none" stroke="#14532d" stroke-linecap="round" stroke-width="2.6" />
</svg>
